<mxfile host="app.diagrams.net" modified="2022-08-24T10:27:49.099Z" agent="5.0 (Windows NT 10.0; Win64; x64) AppleWebKit/537.36 (KHTML, like Gecko) Chrome/104.0.0.0 Safari/537.36" etag="5nflr9wnQhoNyoGA1gtW" version="20.2.7" type="github">
  <diagram id="prtHgNgQTEPvFCAcTncT" name="Page-1">
    <mxGraphModel dx="4346" dy="575" grid="1" gridSize="10" guides="1" tooltips="1" connect="1" arrows="1" fold="1" page="1" pageScale="1" pageWidth="827" pageHeight="1169" math="0" shadow="0">
      <root>
        <mxCell id="0" />
        <mxCell id="1" parent="0" />
        <mxCell id="DSuzvDV1TRTMgyUg_Og5-1" value="WebRTC" style="swimlane;childLayout=stackLayout;resizeParent=1;resizeParentMax=0;horizontal=1;startSize=20;horizontalStack=0;" vertex="1" parent="1">
          <mxGeometry x="-2640" y="40" width="470" height="420" as="geometry" />
        </mxCell>
        <mxCell id="DSuzvDV1TRTMgyUg_Og5-2" value="User" style="swimlane;startSize=20;horizontal=0;" vertex="1" parent="DSuzvDV1TRTMgyUg_Og5-1">
          <mxGeometry y="20" width="470" height="100" as="geometry" />
        </mxCell>
        <mxCell id="DSuzvDV1TRTMgyUg_Og5-5" value="&lt;div style=&quot;line-height: 24px;&quot;&gt;&lt;font style=&quot;background-color: rgb(255, 255, 255);&quot; face=&quot;Comic Sans MS&quot;&gt;PeerConnectionFactoryInterface&lt;/font&gt;&lt;br&gt;&lt;/div&gt;" style="rounded=1;whiteSpace=wrap;html=1;" vertex="1" parent="DSuzvDV1TRTMgyUg_Og5-2">
          <mxGeometry x="40" y="20" width="180" height="60" as="geometry" />
        </mxCell>
        <mxCell id="DSuzvDV1TRTMgyUg_Og5-11" value="API" style="swimlane;startSize=20;horizontal=0;" vertex="1" parent="DSuzvDV1TRTMgyUg_Og5-1">
          <mxGeometry y="120" width="470" height="100" as="geometry" />
        </mxCell>
        <mxCell id="DSuzvDV1TRTMgyUg_Og5-12" value="&lt;font face=&quot;Comic Sans MS&quot;&gt;CreatePeerConnectionFactory&lt;/font&gt;" style="rounded=1;whiteSpace=wrap;html=1;" vertex="1" parent="DSuzvDV1TRTMgyUg_Og5-11">
          <mxGeometry x="40" y="20" width="180" height="60" as="geometry" />
        </mxCell>
        <mxCell id="DSuzvDV1TRTMgyUg_Og5-7" value="webrtc" style="swimlane;startSize=20;horizontal=0;" vertex="1" parent="DSuzvDV1TRTMgyUg_Og5-1">
          <mxGeometry y="220" width="470" height="100" as="geometry" />
        </mxCell>
        <mxCell id="DSuzvDV1TRTMgyUg_Og5-10" value="&lt;div style=&quot;line-height: 24px;&quot;&gt;&lt;font style=&quot;font-size: 12px; background-color: rgb(255, 255, 255);&quot; face=&quot;Comic Sans MS&quot;&gt;CreateModularPeerConnectionFactory&lt;/font&gt;&lt;/div&gt;" style="rounded=1;whiteSpace=wrap;html=1;" vertex="1" parent="DSuzvDV1TRTMgyUg_Og5-7">
          <mxGeometry x="40" y="20" width="220" height="60" as="geometry" />
        </mxCell>
        <mxCell id="DSuzvDV1TRTMgyUg_Og5-9" value="" style="swimlane;startSize=20;horizontal=0;" vertex="1" parent="DSuzvDV1TRTMgyUg_Og5-1">
          <mxGeometry y="320" width="470" height="100" as="geometry" />
        </mxCell>
      </root>
    </mxGraphModel>
  </diagram>
</mxfile>
